<svg width="1600" height="900" viewBox="0 0 1600 900" fill="none" xmlns="http://www.w3.org/2000/svg">
  <defs>
    <linearGradient id="bg" x1="120" y1="80" x2="1480" y2="820" gradientUnits="userSpaceOnUse">
      <stop stop-color="#081223"/>
      <stop offset="0.45" stop-color="#1E40AF"/>
      <stop offset="1" stop-color="#6D28D9"/>
    </linearGradient>
    <linearGradient id="mesh1" x1="240" y1="120" x2="1360" y2="780" gradientUnits="userSpaceOnUse">
      <stop stop-color="white" stop-opacity="0.18"/>
      <stop offset="1" stop-color="white" stop-opacity="0.03"/>
    </linearGradient>
  </defs>
  <rect width="1600" height="900" rx="40" fill="url(#bg)"/>
  <circle cx="180" cy="140" r="170" fill="white" fill-opacity="0.06"/>
  <circle cx="1420" cy="150" r="210" fill="white" fill-opacity="0.05"/>
  <circle cx="1300" cy="760" r="250" fill="white" fill-opacity="0.05"/>
  <path d="M80 760C250 620 420 560 650 600C860 636 1080 620 1510 360" stroke="url(#mesh1)" stroke-width="8" stroke-linecap="round"/>
  <path d="M110 822C310 680 520 650 740 692C980 738 1170 718 1510 540" stroke="white" stroke-opacity="0.10" stroke-width="6" stroke-linecap="round"/>
  <path d="M1020 210C1100 250 1140 330 1128 422C1110 552 990 612 890 630" stroke="white" stroke-opacity="0.10" stroke-width="10" stroke-linecap="round"/>
  <rect x="1040" y="236" width="250" height="150" rx="28" fill="white" fill-opacity="0.08"/>
  <rect x="1070" y="268" width="80" height="80" rx="18" fill="white" fill-opacity="0.12"/>
  <rect x="1172" y="278" width="86" height="14" rx="7" fill="white" fill-opacity="0.40"/>
  <rect x="1172" y="306" width="60" height="12" rx="6" fill="white" fill-opacity="0.24"/>
</svg>
